<svg width="25" height="25" viewBox="0 0 25 25" fill="none" xmlns="http://www.w3.org/2000/svg">
<path d="M12.2077 2.83224L12.3205 2.82544L12.4373 2.83224L12.4957 2.84L12.5561 2.85262L12.6659 2.88564C12.7418 2.91314 12.8139 2.94966 12.8807 2.99438L12.9836 3.07399L13.236 3.28565C15.2326 4.91246 17.7559 5.78602 20.3511 5.74883L20.6896 5.73913C20.9109 5.72922 21.1292 5.79243 21.3095 5.91865C21.4898 6.04486 21.6218 6.22677 21.6843 6.43526C22.1706 8.05821 22.3194 9.7605 22.1219 11.441C21.9243 13.1215 21.3845 14.7458 20.5343 16.2176C19.6842 17.6894 18.5412 18.9785 17.1732 20.0083C15.8052 21.0381 14.2401 21.7877 12.5709 22.2125C12.408 22.2539 12.237 22.2539 12.0741 22.2125C10.4048 21.7878 8.83965 21.0383 7.47153 20.0085C6.1034 18.9787 4.96026 17.6896 4.11004 16.2179C3.25981 14.7461 2.71985 13.1217 2.52225 11.4412C2.32465 9.76062 2.47343 8.05827 2.95976 6.43526C3.02222 6.22677 3.15418 6.04486 3.33452 5.91865C3.51485 5.79243 3.73313 5.72922 3.95443 5.73913C6.66375 5.86062 9.32174 4.98569 11.408 3.28565L11.6683 3.06719L11.7633 2.99438C11.8301 2.94966 11.9022 2.91314 11.9781 2.88564L12.0889 2.85262C12.1277 2.84351 12.1681 2.8367 12.2077 2.83224Z" fill="url(#paint0_linear_246_7692)"/>
<defs>
<linearGradient id="paint0_linear_246_7692" x1="12.322" y1="2.82544" x2="12.322" y2="22.2436" gradientUnits="userSpaceOnUse">
<stop offset="0.274038" stop-color="#7CFFB5"/>
<stop offset="0.634615" stop-color="#00FF6F"/>
</linearGradient>
</defs>
</svg>
