<svg width="34" height="35" viewBox="0 0 34 35" fill="none" xmlns="http://www.w3.org/2000/svg">
<circle cx="17" cy="17.0715" r="17" fill="#0066FF"/>
<path d="M22.3583 11.7132C21.6559 11.0039 20.8202 10.4403 19.8994 10.0549C18.9785 9.66944 17.9906 9.46977 16.9923 9.46731C15.994 9.46485 15.0051 9.65966 14.0824 10.0405C13.1596 10.4214 12.3212 10.9809 11.6153 11.6868C10.9094 12.3927 10.35 13.2311 9.96908 14.1538C9.58819 15.0766 9.39338 16.0655 9.39584 17.0638C9.39829 18.062 9.59797 19.05 9.98339 19.9709C10.3688 20.8917 10.9324 21.7274 11.6417 22.4298C12.3442 23.1391 13.1798 23.7027 14.1007 24.0881C15.0215 24.4735 16.0095 24.6732 17.0077 24.6757C18.006 24.6781 18.9949 24.4833 19.9177 24.1024C20.8404 23.7215 21.6788 23.1621 22.3847 22.4562C23.0906 21.7503 23.6501 20.9119 24.031 19.9892C24.4118 19.0664 24.6067 18.0775 24.6042 17.0792C24.6017 16.0809 24.4021 15.093 24.0166 14.1721C23.6312 13.2513 23.0676 12.4156 22.3583 11.7132ZM19.4358 15.4477C19.5963 15.4477 19.7533 15.4953 19.8868 15.5845C20.0203 15.6737 20.1244 15.8005 20.1859 15.9489C20.2473 16.0972 20.2634 16.2605 20.2321 16.418C20.2007 16.5755 20.1234 16.7201 20.0099 16.8337C19.8963 16.9472 19.7516 17.0246 19.5941 17.0559C19.4367 17.0872 19.2734 17.0711 19.125 17.0097C18.9767 16.9482 18.8499 16.8442 18.7607 16.7107C18.6715 16.5771 18.6238 16.4202 18.6238 16.2596C18.6236 16.1529 18.6444 16.0472 18.6851 15.9486C18.7258 15.8499 18.7856 15.7603 18.861 15.6849C18.9365 15.6094 19.0261 15.5496 19.1247 15.5089C19.2234 15.4682 19.3291 15.4474 19.4358 15.4477ZM14.5643 15.4477C14.7249 15.4477 14.8818 15.4953 15.0154 15.5845C15.1489 15.6737 15.2529 15.8005 15.3144 15.9489C15.3758 16.0972 15.3919 16.2605 15.3606 16.418C15.3293 16.5755 15.2519 16.7201 15.1384 16.8337C15.0248 16.9472 14.8802 17.0246 14.7227 17.0559C14.5652 17.0872 14.4019 17.0711 14.2536 17.0097C14.1052 16.9482 13.9784 16.8442 13.8892 16.7107C13.8 16.5771 13.7524 16.4202 13.7524 16.2596C13.7521 16.1529 13.7729 16.0472 13.8136 15.9486C13.8543 15.8499 13.9141 15.7603 13.9896 15.6849C14.065 15.6094 14.1546 15.5496 14.2533 15.5089C14.3519 15.4682 14.4576 15.4474 14.5643 15.4477ZM17.0017 21.4017C15.4652 21.4017 14.1685 20.404 13.7635 19.0394C13.7284 18.9203 13.6847 18.6953 13.6847 18.6953H20.3153C20.3153 18.6953 20.271 18.9216 20.2365 19.0394C19.838 20.4047 18.5383 21.4017 17.0017 21.4017Z" fill="white"/>
</svg>
