<svg width="18" height="14" viewBox="0 0 18 14" fill="none" xmlns="http://www.w3.org/2000/svg">
    <g filter="url(#filter0_ii_55_4316)">
    <path d="M14.4265 1.71472C13.3116 1.2114 12.132 0.853763 10.9191 0.651276C10.768 0.914814 10.5915 1.26927 10.4698 1.55126C9.16203 1.36154 7.8663 1.36154 6.58258 1.55126C6.46092 1.26934 6.28042 0.914814 6.12794 0.651276C4.91382 0.853857 3.73328 1.2124 2.61782 1.71735C0.398113 4.95368 -0.203631 8.10953 0.0972079 11.2207C1.56946 12.2815 2.99622 12.9259 4.39894 13.3475C4.74755 12.885 5.05572 12.3953 5.32025 11.8835C4.81662 11.6985 4.33109 11.4705 3.86945 11.2023C3.99094 11.1154 4.10956 11.0249 4.22515 10.9308C7.02249 12.1932 10.062 12.1932 12.826 10.9308C12.942 11.0242 13.0606 11.1148 13.1816 11.2023C12.7192 11.4712 12.2328 11.6997 11.7281 11.8849C11.9942 12.3987 12.3018 12.8889 12.6494 13.3488C14.0535 12.9272 15.4816 12.2828 16.9538 11.2207C17.3069 7.61411 16.3508 4.48722 14.4265 1.71472ZM5.70138 9.3074C4.86162 9.3074 4.17295 8.551 4.17295 7.62994C4.17295 6.70887 4.84695 5.95119 5.70138 5.95119C6.55589 5.95119 7.2445 6.70752 7.22982 7.62994C7.23115 8.551 6.55589 9.3074 5.70138 9.3074ZM11.3497 9.3074C10.5099 9.3074 9.82129 8.551 9.82129 7.62994C9.82129 6.70887 10.4952 5.95119 11.3497 5.95119C12.2042 5.95119 12.8928 6.70752 12.8781 7.62994C12.8781 8.551 12.2042 9.3074 11.3497 9.3074Z" fill="url(#paint0_linear_55_4316)"/>
    </g>
    <defs>
    <filter id="filter0_ii_55_4316" x="0.0250244" y="0.651276" width="17.0011" height="13.6976" filterUnits="userSpaceOnUse" color-interpolation-filters="sRGB">
    <feFlood flood-opacity="0" result="BackgroundImageFix"/>
    <feBlend mode="normal" in="SourceGraphic" in2="BackgroundImageFix" result="shape"/>
    <feColorMatrix in="SourceAlpha" type="matrix" values="0 0 0 0 0 0 0 0 0 0 0 0 0 0 0 0 0 0 127 0" result="hardAlpha"/>
    <feOffset dy="1"/>
    <feGaussianBlur stdDeviation="0.5"/>
    <feComposite in2="hardAlpha" operator="arithmetic" k2="-1" k3="1"/>
    <feColorMatrix type="matrix" values="0 0 0 0 1 0 0 0 0 1 0 0 0 0 1 0 0 0 0.25 0"/>
    <feBlend mode="normal" in2="shape" result="effect1_innerShadow_55_4316"/>
    <feColorMatrix in="SourceAlpha" type="matrix" values="0 0 0 0 0 0 0 0 0 0 0 0 0 0 0 0 0 0 127 0" result="hardAlpha"/>
    <feOffset dy="0.25"/>
    <feGaussianBlur stdDeviation="0.125"/>
    <feComposite in2="hardAlpha" operator="arithmetic" k2="-1" k3="1"/>
    <feColorMatrix type="matrix" values="0 0 0 0 1 0 0 0 0 1 0 0 0 0 1 0 0 0 1 0"/>
    <feBlend mode="normal" in2="effect1_innerShadow_55_4316" result="effect2_innerShadow_55_4316"/>
    </filter>
    <linearGradient id="paint0_linear_55_4316" x1="65.2054" y1="2.77494" x2="65.2054" y2="14.5286" gradientUnits="userSpaceOnUse">
    <stop offset="0.00480769" stop-color="#999999"/>
    <stop offset="0.591346" stop-color="white"/>
    </linearGradient>
    </defs>
    </svg>
    