<svg width="18" height="18" viewBox="0 0 18 18" fill="none" xmlns="http://www.w3.org/2000/svg">
    <g filter="url(#filter0_ii_55_4313)">
    <path fill-rule="evenodd" clip-rule="evenodd" d="M9.19633 0.49419C4.37799 0.49419 0.475342 4.39683 0.475342 9.21518C0.475342 13.0742 2.97173 16.3337 6.43832 17.4892C6.87437 17.5655 7.03789 17.3039 7.03789 17.075C7.03789 16.8679 7.02699 16.1811 7.02699 15.4507C4.83584 15.854 4.26897 14.9165 4.09455 14.426C3.99644 14.1752 3.57129 13.4013 3.20065 13.1941C2.89542 13.0306 2.45937 12.6273 3.18975 12.6164C3.87653 12.6055 4.36708 13.2486 4.5306 13.5103C5.31549 14.8293 6.56914 14.4587 7.07059 14.2298C7.1469 13.6629 7.37583 13.2813 7.62656 13.0633C5.68614 12.8453 3.6585 12.0931 3.6585 8.75733C3.6585 7.80892 3.99644 7.02403 4.55241 6.41356C4.4652 6.19554 4.15996 5.30164 4.63962 4.1025C4.63962 4.1025 5.37 3.87357 7.03789 4.9964C7.73557 4.80018 8.47685 4.70207 9.21814 4.70207C9.95942 4.70207 10.7007 4.80018 11.3984 4.9964C13.0663 3.86267 13.7967 4.1025 13.7967 4.1025C14.2763 5.30164 13.9711 6.19554 13.8839 6.41356C14.4398 7.02403 14.7778 7.79802 14.7778 8.75733C14.7778 12.104 12.7392 12.8453 10.7988 13.0633C11.115 13.3359 11.3875 13.8591 11.3875 14.6767C11.3875 15.8431 11.3766 16.7806 11.3766 17.075C11.3766 17.3039 11.5401 17.5764 11.9762 17.4892C15.4209 16.3337 17.9173 13.0633 17.9173 9.21518C17.9173 4.39683 14.0147 0.49419 9.19633 0.49419Z" fill="url(#paint0_linear_55_4313)"/>
    </g>
    <defs>
    <filter id="filter0_ii_55_4313" x="0.475342" y="0.49419" width="17.442" height="18.0117" filterUnits="userSpaceOnUse" color-interpolation-filters="sRGB">
    <feFlood flood-opacity="0" result="BackgroundImageFix"/>
    <feBlend mode="normal" in="SourceGraphic" in2="BackgroundImageFix" result="shape"/>
    <feColorMatrix in="SourceAlpha" type="matrix" values="0 0 0 0 0 0 0 0 0 0 0 0 0 0 0 0 0 0 127 0" result="hardAlpha"/>
    <feOffset dy="1"/>
    <feGaussianBlur stdDeviation="0.5"/>
    <feComposite in2="hardAlpha" operator="arithmetic" k2="-1" k3="1"/>
    <feColorMatrix type="matrix" values="0 0 0 0 1 0 0 0 0 1 0 0 0 0 1 0 0 0 0.25 0"/>
    <feBlend mode="normal" in2="shape" result="effect1_innerShadow_55_4313"/>
    <feColorMatrix in="SourceAlpha" type="matrix" values="0 0 0 0 0 0 0 0 0 0 0 0 0 0 0 0 0 0 127 0" result="hardAlpha"/>
    <feOffset dy="0.25"/>
    <feGaussianBlur stdDeviation="0.125"/>
    <feComposite in2="hardAlpha" operator="arithmetic" k2="-1" k3="1"/>
    <feColorMatrix type="matrix" values="0 0 0 0 1 0 0 0 0 1 0 0 0 0 1 0 0 0 1 0"/>
    <feBlend mode="normal" in2="effect1_innerShadow_55_4313" result="effect2_innerShadow_55_4313"/>
    </filter>
    <linearGradient id="paint0_linear_55_4313" x1="67.3461" y1="3.33939" x2="67.3461" y2="19.0865" gradientUnits="userSpaceOnUse">
    <stop offset="0.00480769" stop-color="#999999"/>
    <stop offset="0.591346" stop-color="white"/>
    </linearGradient>
    </defs>
    </svg>
    