<svg width="13" height="14" viewBox="0 0 13 14" fill="none" xmlns="http://www.w3.org/2000/svg">
<path d="M5.95801 9.32275H7.04134V6.07275H5.95801V9.32275ZM6.49968 4.98942C6.65315 4.98942 6.78188 4.93742 6.88588 4.83342C6.98988 4.72942 7.0417 4.60087 7.04134 4.44775C7.04098 4.29464 6.98898 4.16609 6.88534 4.06209C6.7817 3.95809 6.65315 3.90609 6.49968 3.90609C6.3462 3.90609 6.21765 3.95809 6.11401 4.06209C6.01037 4.16609 5.95837 4.29464 5.95801 4.44775C5.95765 4.60087 6.00965 4.7296 6.11401 4.83396C6.21837 4.93832 6.34693 4.99014 6.49968 4.98942ZM6.49968 12.0311C5.75037 12.0311 5.0462 11.8888 4.38718 11.6043C3.72815 11.3197 3.15488 10.9339 2.66738 10.4467C2.17988 9.95957 1.79404 9.38631 1.50984 8.72692C1.22565 8.06753 1.08337 7.36337 1.08301 6.61442C1.08265 5.86548 1.22493 5.16131 1.50984 4.50192C1.79476 3.84253 2.18061 3.26927 2.66738 2.78213C3.15416 2.29499 3.72743 1.90914 4.38718 1.62459C5.04693 1.34003 5.75109 1.19775 6.49968 1.19775C7.24826 1.19775 7.95243 1.34003 8.61217 1.62459C9.27192 1.90914 9.84519 2.29499 10.332 2.78213C10.8187 3.26927 11.2048 3.84253 11.4901 4.50192C11.7753 5.16131 11.9174 5.86548 11.9163 6.61442C11.9153 7.36337 11.773 8.06753 11.4895 8.72692C11.206 9.38631 10.8202 9.95957 10.332 10.4467C9.84375 10.9339 9.27048 11.3199 8.61217 11.6048C7.95387 11.8897 7.2497 12.0318 6.49968 12.0311Z" fill="#5F6060"/>
</svg>
