<svg width="21" height="22" viewBox="0 0 21 22" fill="none" xmlns="http://www.w3.org/2000/svg">
    <g filter="url(#filter0_ii_80_474)">
    <path d="M9.67858 0.143555C9.97697 1.02006 10.5559 1.98045 9.85672 2.38209C8.13765 3.36022 6.23152 4.22386 5.12704 6.40736C3.4614 9.69592 2.94434 17.5201 0.188477 19.2509C2.35291 19.4196 4.18288 18.5276 5.03796 17.2894C5.35417 18.8116 6.48983 20.2628 7.84371 21.0483C7.61213 19.7613 7.76355 18.4122 8.68989 16.9432C9.42473 17.9595 10.0749 19.5749 11.9766 20.285C11.2462 19.0646 11.3665 17.9417 11.5001 16.5482C11.892 17.742 13.2147 18.7672 14.7467 19.1622C13.9985 18.3367 13.6823 17.1429 13.8115 16.2331C14.4617 17.3382 15.7443 17.9373 16.7998 17.995C9.97252 10.0243 14.6309 5.05377 20.336 9.36751C20.3137 7.16182 18.9375 6.40736 17.3432 5.12034C17.3031 4.43688 16.9156 3.82 16.5638 3.19602C14.1722 2.75266 11.1527 1.33161 9.67858 0.143555ZM13.2949 3.46673C14.4573 3.9487 15.3524 4.46795 15.8067 5.04045C15.0674 4.88068 14.0342 4.88512 12.6892 4.99163C13.3572 4.56115 13.424 4.02859 13.2949 3.46673Z" fill="url(#paint0_linear_80_474)"/>
    </g>
    <defs>
    <filter id="filter0_ii_80_474" x="0.188477" y="0.143555" width="20.1475" height="21.9048" filterUnits="userSpaceOnUse" color-interpolation-filters="sRGB">
    <feFlood flood-opacity="0" result="BackgroundImageFix"/>
    <feBlend mode="normal" in="SourceGraphic" in2="BackgroundImageFix" result="shape"/>
    <feColorMatrix in="SourceAlpha" type="matrix" values="0 0 0 0 0 0 0 0 0 0 0 0 0 0 0 0 0 0 127 0" result="hardAlpha"/>
    <feOffset dy="1"/>
    <feGaussianBlur stdDeviation="0.5"/>
    <feComposite in2="hardAlpha" operator="arithmetic" k2="-1" k3="1"/>
    <feColorMatrix type="matrix" values="0 0 0 0 1 0 0 0 0 1 0 0 0 0 1 0 0 0 0.25 0"/>
    <feBlend mode="normal" in2="shape" result="effect1_innerShadow_80_474"/>
    <feColorMatrix in="SourceAlpha" type="matrix" values="0 0 0 0 0 0 0 0 0 0 0 0 0 0 0 0 0 0 127 0" result="hardAlpha"/>
    <feOffset dy="0.25"/>
    <feGaussianBlur stdDeviation="0.125"/>
    <feComposite in2="hardAlpha" operator="arithmetic" k2="-1" k3="1"/>
    <feColorMatrix type="matrix" values="0 0 0 0 1 0 0 0 0 1 0 0 0 0 1 0 0 0 1 0"/>
    <feBlend mode="normal" in2="effect1_innerShadow_80_474" result="effect2_innerShadow_80_474"/>
    </filter>
    <linearGradient id="paint0_linear_80_474" x1="11.3505" y1="16.1269" x2="11.3505" y2="3.69181" gradientUnits="userSpaceOnUse">
    <stop offset="0.274038" stop-color="#DDF4FF"/>
    <stop offset="0.855769" stop-color="#DDF4FF" stop-opacity="0.75"/>
    </linearGradient>
    </defs>
    </svg>
    