<svg width="34" height="35" viewBox="0 0 34 35" fill="none" xmlns="http://www.w3.org/2000/svg">
<circle cx="17" cy="17.3572" r="17" fill="black"/>
<g filter="url(#filter0_ii_246_608)">
<path d="M16.4576 7.98975C16.7351 8.78981 17.2734 9.66644 16.6233 10.033C15.0247 10.9259 13.2523 11.7142 12.2252 13.7073C10.6764 16.709 10.1956 23.8509 7.63297 25.4307C9.64562 25.5847 11.3473 24.7704 12.1424 23.6402C12.4364 25.0297 13.4924 26.3544 14.7514 27.0714C14.536 25.8966 14.6769 24.6651 15.5382 23.3242C16.2215 24.2519 16.8262 25.7265 18.5945 26.3746C17.9153 25.2606 18.0271 24.2357 18.1514 22.9637C18.5158 24.0534 19.7458 24.9892 21.1704 25.3497C20.4746 24.5962 20.1806 23.5065 20.3007 22.6761C20.9053 23.6848 22.098 24.2317 23.0795 24.2843C16.7309 17.0088 21.0627 12.4717 26.3677 16.4093C26.347 14.3959 25.0673 13.7073 23.5847 12.5325C23.5475 11.9086 23.1872 11.3456 22.86 10.776C20.6361 10.3713 17.8284 9.07419 16.4576 7.98975ZM19.8203 11.0231C20.9012 11.463 21.7336 11.937 22.156 12.4596C21.4685 12.3137 20.5078 12.3178 19.2571 12.415C19.8783 12.0221 19.9404 11.536 19.8203 11.0231Z" fill="url(#paint0_linear_246_608)"/>
</g>
<g filter="url(#filter1_ii_246_608)">
<path d="M16.4576 7.98975C16.7351 8.78981 17.2734 9.66644 16.6233 10.033C15.0247 10.9259 13.2523 11.7142 12.2252 13.7073C10.6764 16.709 10.1956 23.8509 7.63297 25.4307C9.64562 25.5847 11.3473 24.7704 12.1424 23.6402C12.4364 25.0297 13.4924 26.3544 14.7514 27.0714C14.536 25.8966 14.6769 24.6651 15.5382 23.3242C16.2215 24.2519 16.8262 25.7265 18.5945 26.3746C17.9153 25.2606 18.0271 24.2357 18.1514 22.9637C18.5158 24.0534 19.7458 24.9892 21.1704 25.3497C20.4746 24.5962 20.1806 23.5065 20.3007 22.6761C20.9053 23.6848 22.098 24.2317 23.0795 24.2843C16.7309 17.0088 21.0627 12.4717 26.3677 16.4093C26.347 14.3959 25.0673 13.7073 23.5847 12.5325C23.5475 11.9086 23.1872 11.3456 22.86 10.776C20.6361 10.3713 17.8284 9.07419 16.4576 7.98975ZM19.8203 11.0231C20.9012 11.463 21.7336 11.937 22.156 12.4596C21.4685 12.3137 20.5078 12.3178 19.2571 12.415C19.8783 12.0221 19.9404 11.536 19.8203 11.0231Z" fill="url(#paint1_linear_246_608)"/>
</g>
<defs>
<filter id="filter0_ii_246_608" x="7.63297" y="7.98975" width="18.7347" height="20.0815" filterUnits="userSpaceOnUse" color-interpolation-filters="sRGB">
<feFlood flood-opacity="0" result="BackgroundImageFix"/>
<feBlend mode="normal" in="SourceGraphic" in2="BackgroundImageFix" result="shape"/>
<feColorMatrix in="SourceAlpha" type="matrix" values="0 0 0 0 0 0 0 0 0 0 0 0 0 0 0 0 0 0 127 0" result="hardAlpha"/>
<feOffset dy="1"/>
<feGaussianBlur stdDeviation="0.5"/>
<feComposite in2="hardAlpha" operator="arithmetic" k2="-1" k3="1"/>
<feColorMatrix type="matrix" values="0 0 0 0 1 0 0 0 0 1 0 0 0 0 1 0 0 0 0.25 0"/>
<feBlend mode="normal" in2="shape" result="effect1_innerShadow_246_608"/>
<feColorMatrix in="SourceAlpha" type="matrix" values="0 0 0 0 0 0 0 0 0 0 0 0 0 0 0 0 0 0 127 0" result="hardAlpha"/>
<feOffset dy="0.25"/>
<feGaussianBlur stdDeviation="0.125"/>
<feComposite in2="hardAlpha" operator="arithmetic" k2="-1" k3="1"/>
<feColorMatrix type="matrix" values="0 0 0 0 1 0 0 0 0 1 0 0 0 0 1 0 0 0 1 0"/>
<feBlend mode="normal" in2="effect1_innerShadow_246_608" result="effect2_innerShadow_246_608"/>
</filter>
<filter id="filter1_ii_246_608" x="7.63297" y="7.98975" width="18.7347" height="20.0815" filterUnits="userSpaceOnUse" color-interpolation-filters="sRGB">
<feFlood flood-opacity="0" result="BackgroundImageFix"/>
<feBlend mode="normal" in="SourceGraphic" in2="BackgroundImageFix" result="shape"/>
<feColorMatrix in="SourceAlpha" type="matrix" values="0 0 0 0 0 0 0 0 0 0 0 0 0 0 0 0 0 0 127 0" result="hardAlpha"/>
<feOffset dy="1"/>
<feGaussianBlur stdDeviation="0.5"/>
<feComposite in2="hardAlpha" operator="arithmetic" k2="-1" k3="1"/>
<feColorMatrix type="matrix" values="0 0 0 0 1 0 0 0 0 1 0 0 0 0 1 0 0 0 0.25 0"/>
<feBlend mode="normal" in2="shape" result="effect1_innerShadow_246_608"/>
<feColorMatrix in="SourceAlpha" type="matrix" values="0 0 0 0 0 0 0 0 0 0 0 0 0 0 0 0 0 0 127 0" result="hardAlpha"/>
<feOffset dy="0.25"/>
<feGaussianBlur stdDeviation="0.125"/>
<feComposite in2="hardAlpha" operator="arithmetic" k2="-1" k3="1"/>
<feColorMatrix type="matrix" values="0 0 0 0 1 0 0 0 0 1 0 0 0 0 1 0 0 0 1 0"/>
<feBlend mode="normal" in2="effect1_innerShadow_246_608" result="effect2_innerShadow_246_608"/>
</filter>
<linearGradient id="paint0_linear_246_608" x1="18.0123" y1="22.5791" x2="18.0123" y2="11.2285" gradientUnits="userSpaceOnUse">
<stop offset="0.274038" stop-color="#C3D8E1"/>
<stop offset="0.855769" stop-color="#C3D8E1"/>
</linearGradient>
<linearGradient id="paint1_linear_246_608" x1="79.4599" y1="11.1811" x2="79.4599" y2="28.8444" gradientUnits="userSpaceOnUse">
<stop offset="0.00480769" stop-color="#999999"/>
<stop offset="0.591346" stop-color="white"/>
</linearGradient>
</defs>
</svg>
