<svg width="34" height="35" viewBox="0 0 34 35" fill="none" xmlns="http://www.w3.org/2000/svg">
<circle cx="17" cy="17.7859" r="17" fill="black"/>
<g filter="url(#filter0_ii_246_614)">
<path d="M16.4576 8.41846C16.7351 9.21852 17.2734 10.0951 16.6233 10.4618C15.0247 11.3546 13.2523 12.1429 12.2252 14.136C10.6764 17.1377 10.1956 24.2796 7.63297 25.8595C9.64562 26.0134 11.3473 25.1991 12.1424 24.0689C12.4364 25.4584 13.4924 26.7831 14.7514 27.5001C14.536 26.3253 14.6769 25.0938 15.5382 23.753C16.2215 24.6806 16.8262 26.1552 18.5945 26.8033C17.9153 25.6893 18.0271 24.6644 18.1514 23.3924C18.5158 24.4821 19.7458 25.4179 21.1704 25.7784C20.4746 25.025 20.1806 23.9352 20.3007 23.1048C20.9053 24.1135 22.098 24.6604 23.0795 24.713C16.7309 17.4375 21.0627 12.9004 26.3677 16.838C26.347 14.8246 25.0673 14.136 23.5847 12.9612C23.5475 12.3374 23.1872 11.7743 22.86 11.2047C20.6361 10.8 17.8284 9.5029 16.4576 8.41846ZM19.8203 11.4518C20.9012 11.8917 21.7336 12.3657 22.156 12.8883C21.4685 12.7425 20.5078 12.7465 19.2571 12.8437C19.8783 12.4508 19.9404 11.9647 19.8203 11.4518Z" fill="url(#paint0_linear_246_614)"/>
</g>
<g filter="url(#filter1_ii_246_614)">
<path d="M16.4576 8.41846C16.7351 9.21852 17.2734 10.0951 16.6233 10.4618C15.0247 11.3546 13.2523 12.1429 12.2252 14.136C10.6764 17.1377 10.1956 24.2796 7.63297 25.8595C9.64562 26.0134 11.3473 25.1991 12.1424 24.0689C12.4364 25.4584 13.4924 26.7831 14.7514 27.5001C14.536 26.3253 14.6769 25.0938 15.5382 23.753C16.2215 24.6806 16.8262 26.1552 18.5945 26.8033C17.9153 25.6893 18.0271 24.6644 18.1514 23.3924C18.5158 24.4821 19.7458 25.4179 21.1704 25.7784C20.4746 25.025 20.1806 23.9352 20.3007 23.1048C20.9053 24.1135 22.098 24.6604 23.0795 24.713C16.7309 17.4375 21.0627 12.9004 26.3677 16.838C26.347 14.8246 25.0673 14.136 23.5847 12.9612C23.5475 12.3374 23.1872 11.7743 22.86 11.2047C20.6361 10.8 17.8284 9.5029 16.4576 8.41846ZM19.8203 11.4518C20.9012 11.8917 21.7336 12.3657 22.156 12.8883C21.4685 12.7425 20.5078 12.7465 19.2571 12.8437C19.8783 12.4508 19.9404 11.9647 19.8203 11.4518Z" fill="url(#paint1_linear_246_614)"/>
</g>
<defs>
<filter id="filter0_ii_246_614" x="7.63297" y="8.41846" width="18.7347" height="20.0815" filterUnits="userSpaceOnUse" color-interpolation-filters="sRGB">
<feFlood flood-opacity="0" result="BackgroundImageFix"/>
<feBlend mode="normal" in="SourceGraphic" in2="BackgroundImageFix" result="shape"/>
<feColorMatrix in="SourceAlpha" type="matrix" values="0 0 0 0 0 0 0 0 0 0 0 0 0 0 0 0 0 0 127 0" result="hardAlpha"/>
<feOffset dy="1"/>
<feGaussianBlur stdDeviation="0.5"/>
<feComposite in2="hardAlpha" operator="arithmetic" k2="-1" k3="1"/>
<feColorMatrix type="matrix" values="0 0 0 0 1 0 0 0 0 1 0 0 0 0 1 0 0 0 0.25 0"/>
<feBlend mode="normal" in2="shape" result="effect1_innerShadow_246_614"/>
<feColorMatrix in="SourceAlpha" type="matrix" values="0 0 0 0 0 0 0 0 0 0 0 0 0 0 0 0 0 0 127 0" result="hardAlpha"/>
<feOffset dy="0.25"/>
<feGaussianBlur stdDeviation="0.125"/>
<feComposite in2="hardAlpha" operator="arithmetic" k2="-1" k3="1"/>
<feColorMatrix type="matrix" values="0 0 0 0 1 0 0 0 0 1 0 0 0 0 1 0 0 0 1 0"/>
<feBlend mode="normal" in2="effect1_innerShadow_246_614" result="effect2_innerShadow_246_614"/>
</filter>
<filter id="filter1_ii_246_614" x="7.63297" y="8.41846" width="18.7347" height="20.0815" filterUnits="userSpaceOnUse" color-interpolation-filters="sRGB">
<feFlood flood-opacity="0" result="BackgroundImageFix"/>
<feBlend mode="normal" in="SourceGraphic" in2="BackgroundImageFix" result="shape"/>
<feColorMatrix in="SourceAlpha" type="matrix" values="0 0 0 0 0 0 0 0 0 0 0 0 0 0 0 0 0 0 127 0" result="hardAlpha"/>
<feOffset dy="1"/>
<feGaussianBlur stdDeviation="0.5"/>
<feComposite in2="hardAlpha" operator="arithmetic" k2="-1" k3="1"/>
<feColorMatrix type="matrix" values="0 0 0 0 1 0 0 0 0 1 0 0 0 0 1 0 0 0 0.25 0"/>
<feBlend mode="normal" in2="shape" result="effect1_innerShadow_246_614"/>
<feColorMatrix in="SourceAlpha" type="matrix" values="0 0 0 0 0 0 0 0 0 0 0 0 0 0 0 0 0 0 127 0" result="hardAlpha"/>
<feOffset dy="0.25"/>
<feGaussianBlur stdDeviation="0.125"/>
<feComposite in2="hardAlpha" operator="arithmetic" k2="-1" k3="1"/>
<feColorMatrix type="matrix" values="0 0 0 0 1 0 0 0 0 1 0 0 0 0 1 0 0 0 1 0"/>
<feBlend mode="normal" in2="effect1_innerShadow_246_614" result="effect2_innerShadow_246_614"/>
</filter>
<linearGradient id="paint0_linear_246_614" x1="18.0123" y1="23.0078" x2="18.0123" y2="11.6573" gradientUnits="userSpaceOnUse">
<stop offset="0.274038" stop-color="#C3D8E1"/>
<stop offset="0.855769" stop-color="#C3D8E1"/>
</linearGradient>
<linearGradient id="paint1_linear_246_614" x1="17.0003" y1="8.41846" x2="17.0003" y2="27.5001" gradientUnits="userSpaceOnUse">
<stop offset="0.274038" stop-color="#7CFFB5"/>
<stop offset="0.634615" stop-color="#00FF6F"/>
</linearGradient>
</defs>
</svg>
