<svg width="34" height="35" viewBox="0 0 34 35" fill="none" xmlns="http://www.w3.org/2000/svg">
<circle cx="17" cy="17.5" r="17" fill="#42FF81"/>
<path d="M17.3208 17.8209C17.3208 15.736 19.0582 13.9986 21.1431 13.9986C23.228 13.9986 24.9654 15.736 24.9654 17.8209H17.3208ZM17.3208 17.8209C17.3208 19.9058 15.5833 21.6433 13.4984 21.6433C11.4135 21.6433 9.67612 19.9058 9.67612 17.8209H17.3208ZM17.3208 17.8209C15.2359 17.8209 13.4984 16.0835 13.4984 13.9986C13.4984 11.9137 15.2359 10.1763 17.3208 10.1763V17.8209ZM17.3208 17.8209C19.4057 17.8209 21.1431 19.5583 21.1431 21.6433C21.1431 23.7282 19.4057 25.4656 17.3208 25.4656V17.8209Z" fill="white"/>
</svg>
