<svg width="34" height="35" viewBox="0 0 34 35" fill="none" xmlns="http://www.w3.org/2000/svg">
<circle cx="17" cy="17.6428" r="17" fill="#FF3A3A"/>
<path fill-rule="evenodd" clip-rule="evenodd" d="M25.1776 12.786L21.8569 25.179L9.4639 21.8584L12.7846 9.46533L25.1776 12.786ZM19.6166 19.5977C18.975 19.4258 18.3154 19.8066 18.1435 20.4482C17.9716 21.0899 18.3523 21.7495 18.994 21.9214C19.6357 22.0933 20.2952 21.7126 20.4672 21.0709C20.6391 20.4292 20.2583 19.7696 19.6166 19.5977ZM17.6321 16.1603C16.9904 15.9884 16.3309 16.3692 16.1589 17.0109C15.987 17.6525 16.3678 18.3121 17.0094 18.484C17.6511 18.656 18.3106 18.2752 18.4826 17.6335C18.6545 16.9919 18.2737 16.3323 17.6321 16.1603ZM15.6475 12.723C15.0058 12.551 14.3463 12.9318 14.1743 13.5735C14.0024 14.2152 14.3832 14.8747 15.0248 15.0467C15.6665 15.2186 16.3261 14.8378 16.498 14.1961C16.6699 13.5545 16.2892 12.8949 15.6475 12.723Z" fill="white"/>
</svg>
